<?xml version="1.0" encoding="iso-8859-1"?>
<!-- Generator: Adobe Illustrator 19.0.0, SVG Export Plug-In . SVG Version: 6.00 Build 0)  -->
<svg version="1.1" id="Capa_1" xmlns="http://www.w3.org/2000/svg" xmlns:xlink="http://www.w3.org/1999/xlink" x="0px" y="0px"
	 viewBox="0 0 511.999 511.999" style="enable-background:new 0 0 511.999 511.999;" xml:space="preserve">
<g>
	<g>
		<path d="M397.893,117.109l-6.288-6.288c-2.928-2.929-7.677-2.929-10.606,0s-2.929,7.677,0,10.606l6.288,6.288
			c2.896,2.896,7.71,2.896,10.606,0C400.822,124.786,400.822,120.038,397.893,117.109z"/>
	</g>
</g>
<g>
	<g>
		<path d="M467.381,47.622l-6.288-6.288c-2.929-2.93-7.678-2.93-10.606,0c-2.929,2.929-2.929,7.677,0,10.606l6.288,6.288
			c1.464,1.464,3.384,2.196,5.303,2.196s3.839-0.732,5.303-2.196C470.31,55.299,470.31,50.55,467.381,47.622z"/>
	</g>
</g>
<g>
	<g>
		<path d="M442.957,78.154c-0.277-4.133-3.851-7.259-7.985-6.981c-4.133,0.277-7.258,3.853-6.981,7.985
			c0.159,2.36-0.79,4.752-2.601,6.564c-1.814,1.811-4.203,2.761-6.566,2.601c-4.134-0.276-7.708,2.847-7.985,6.98
			c-0.336,5.011,3.92,8.037,8.496,8.037c6.156,0,12.157-2.509,16.661-7.012C440.868,91.455,443.405,84.831,442.957,78.154z"/>
	</g>
</g>
<g>
	<g>
		<path d="M500.334,11.743C492.76,4.17,482.692,0,471.981,0c-10.71,0-20.779,4.17-28.353,11.744l-119.11,119.11
			c-7.257,2.501-31.46,12.758-42.354,40.956c-104.221,26.225-180.838,63.568-227.726,111.039
			C18.324,319.412,0.034,361.307,0.078,407.37c0.026,27.991,10.905,54.271,30.631,73.998c0.054,0.054,0.11,0.106,0.19,0.185
			c19.705,19.608,45.905,30.42,73.808,30.446c0,0,0.157,0,0.167,0c46.035,0,87.909-18.32,124.445-54.447
			c47.427-46.895,84.741-123.485,110.95-227.646c13.13-5.1,24.273-13.91,32.394-25.696c4.272-6.201,7.145-12.498,8.524-16.615
			l22.604-22.604c2.929-2.929,2.929-7.677,0-10.606c-2.929-2.929-7.678-2.929-10.606,0l-18.55,18.55l-35.492-35.492
			c0,0,114.998-114.998,115.093-115.093c9.671-9.671,25.831-9.66,35.492,0c9.674,9.673,9.658,25.833,0,35.492L414.23,133.34
			c-2.929,2.929-2.929,7.677,0,10.606c2.928,2.929,7.677,2.929,10.606,0c0,0,75.455-75.454,75.498-75.498
			C515.791,52.991,515.778,27.186,500.334,11.743z M23.072,444.436c-5.212-11.488-7.982-24.063-7.994-37.08
			c-0.04-41.971,16.794-80.315,50.033-113.967c44.42-44.973,117.489-80.664,217.228-106.151
			c-24.81,12.95-83.972,45.414-138.88,87.524c-42.273,32.42-73.889,64.204-93.969,94.469
			C32.118,395.414,23.302,420.584,23.072,444.436z M61.941,377.597c19.133-28.863,49.577-59.416,90.486-90.809
			c60.246-46.232,125.796-80.687,143.731-89.799l4.162,4.162L39.732,461.738C34.503,436.013,41.938,407.772,61.941,377.597z
			 M50.339,472.345l260.588-260.588l4.162,4.162c-9.098,17.912-43.474,83.327-89.676,143.57
			c-31.41,40.955-61.979,71.437-90.859,90.599C104.349,470.127,76.085,477.578,50.339,472.345z M218.774,446.887
			C185.143,480.14,146.823,497,104.875,497c-0.002,0-0.007,0-0.009,0h-0.144c-13.02-0.012-25.597-2.784-37.087-7.998
			c23.852-0.228,49.028-9.042,75.212-26.415c30.265-20.08,62.048-51.696,94.469-93.969c42.11-54.908,74.574-114.07,87.524-138.88
			C299.368,329.418,263.706,402.459,218.774,446.887z M365.966,185.481c-3.026,7.16-11.395,22.373-30.064,30.037l-39.344-39.344
			c7.68-18.747,22.851-27.066,30.028-30.073L365.966,185.481z"/>
	</g>
</g>
<g>
</g>
<g>
</g>
<g>
</g>
<g>
</g>
<g>
</g>
<g>
</g>
<g>
</g>
<g>
</g>
<g>
</g>
<g>
</g>
<g>
</g>
<g>
</g>
<g>
</g>
<g>
</g>
<g>
</g>
</svg>
