<svg height="512.00003pt" viewBox="0 0 512.00003 512.00003" width="512.00003pt" xmlns="http://www.w3.org/2000/svg"><path d="m409.601562 102.398438c-9.425781 0-17.066406 7.640624-17.066406 17.066406v25.601562c0 9.425782 7.640625 17.066406 17.066406 17.066406h51.199219c9.425781 0 17.066407-7.640624 17.066407-17.066406v-25.601562c0-9.425782-7.640626-17.066406-17.066407-17.066406zm0 42.667968v-25.601562h51.199219v25.601562zm0 0"/><path d="m469.332031 179.199219h-17.066406c-4.710937 0-8.53125 3.820312-8.53125 8.535156 0 4.710937 3.820313 8.53125 8.53125 8.53125h17.066406c4.714844 0 8.535157-3.820313 8.535157-8.53125 0-4.714844-3.820313-8.535156-8.535157-8.535156zm0 0"/><path d="m401.066406 196.265625h17.066406c4.714844 0 8.535157-3.820313 8.535157-8.53125 0-4.714844-3.820313-8.535156-8.535157-8.535156h-17.066406c-4.710937 0-8.53125 3.820312-8.53125 8.535156 0 4.710937 3.820313 8.53125 8.53125 8.53125zm0 0"/><path d="m401.066406 221.867188h17.066406c4.714844 0 8.535157-3.820313 8.535157-8.535157 0-4.710937-3.820313-8.53125-8.535157-8.53125h-17.066406c-4.710937 0-8.53125 3.820313-8.53125 8.53125 0 4.714844 3.820313 8.535157 8.53125 8.535157zm0 0"/><path d="m469.332031 204.800781h-17.066406c-4.710937 0-8.53125 3.820313-8.53125 8.53125 0 4.714844 3.820313 8.535157 8.53125 8.535157h17.066406c4.714844 0 8.535157-3.820313 8.535157-8.535157 0-4.710937-3.820313-8.53125-8.535157-8.53125zm0 0"/><path d="m409.601562 0h-366.933593c-23.554688.0273438-42.6406252 19.113281-42.667969 42.667969v34.132812c0 9.425781 7.640625 17.066407 17.066406 17.066407h34.132813v42.667968c0 14.136719 11.460937 25.597656 25.601562 25.597656h30.359375l-28.765625 76.800782h-43.878906c-4.753906.007812-9.292969 2.003906-12.515625 5.503906-3.285156 3.578125-4.921875 8.371094-4.507812 13.210938 4.359374 43.027343 30.175781 80.9375 68.617187 100.75h-43.441406c-14.140625 0-25.601563 11.464843-25.601563 25.601562v8.535156h-8.53125c-4.714844 0-8.535156 3.820313-8.535156 8.53125v34.132813c.0273438 20.269531 14.28125 37.730469 34.132812 41.8125v17.921875c0 9.425781 7.640626 17.066406 17.066407 17.066406h42.667969c9.425781 0 17.066406-7.640625 17.066406-17.066406v-17.066406h290.132812v17.066406c0 9.425781 7.640625 17.066406 17.066406 17.066406h42.667969c9.425781 0 17.066407-7.640625 17.066407-17.066406v-17.921875c19.851562-4.082031 34.105468-21.542969 34.132812-41.8125v-332.800781c-.0625-56.527344-45.871094-102.335938-102.398438-102.398438zm-341.335937 136.535156v-8.535156h17.066406c4.714844 0 8.535157-3.820312 8.535157-8.535156 0-4.710938-3.820313-8.53125-8.535157-8.53125h-17.066406v-17.066406h170.667969v42.667968c0 4.710938-3.820313 8.53125-8.535156 8.53125h-153.597657c-4.714843 0-8.535156-3.820312-8.535156-8.53125zm281.601563-42.667968c4.710937 0 8.53125 3.820312 8.53125 8.53125v79.277343c.003906 3.351563-.390626 6.695313-1.175782 9.957031l-48.222656 200.902344h-18.867188v-8.535156c0-14.136719-11.460937-25.601562-25.597656-25.601562h-43.445312c38.441406-19.8125 64.261718-57.722657 68.617187-100.75.414063-4.839844-1.222656-9.632813-4.507812-13.210938-3.222657-3.5-7.757813-5.496094-12.515625-5.503906h-43.800782l-28.835937-76.800782h30.351563c14.140624 0 25.601562-11.460937 25.601562-25.597656v-42.667968zm-192.597657 68.265624 11.589844 76.800782h-30.515625l11.585938-76.800782zm28.851563 76.800782-11.597656-76.800782h7.296874l28.832032 76.800782zm-60.742188-76.800782h7.296875l-11.597656 76.800782h-24.464844zm-90.863281 93.867188h238.167969v.222656c-4.796875 57.292969-57.113282 102.175782-119.082032 102.175782s-114.289062-44.882813-119.085937-102.398438zm-.382813 128c0-4.710938 3.820313-8.535156 8.535157-8.535156h221.867187c4.710938 0 8.53125 3.824218 8.53125 8.535156v8.535156h-238.933594zm59.734376 110.933594h-42.667969v-17.066406h42.667969zm366.933593 0h-42.667969v-17.066406h42.667969zm34.132813-59.734375c0 14.140625-11.460938 25.601562-25.601563 25.601562h-426.664062c-14.140625 0-25.601563-11.460937-25.601563-25.601562v-25.597657h477.867188zm0-42.664063h-168.371094l47.257812-196.925781c1.09375-4.5625 1.644532-9.242187 1.644532-13.933594v-79.277343c0-14.136719-11.460938-25.597657-25.597656-25.597657h-332.800782v-34.132812c0-14.140625 11.460938-25.601563 25.601563-25.601563h366.933593c47.105469.050782 85.28125 38.226563 85.332032 85.332032zm0 0"/><path d="m418.132812 256c-32.988281 0-59.734374 26.742188-59.734374 59.734375 0 32.988281 26.746093 59.730469 59.734374 59.730469 32.992188 0 59.734376-26.742188 59.734376-59.730469-.039063-32.976563-26.757813-59.695313-59.734376-59.734375zm0 102.398438c-23.5625 0-42.667968-19.101563-42.667968-42.664063 0-23.566406 19.105468-42.667969 42.667968-42.667969 23.566407 0 42.667969 19.101563 42.667969 42.667969-.027343 23.550781-19.113281 42.636719-42.667969 42.664063zm0 0"/><path d="m434.515625 295.425781c-.167969-.527343-.429687-1.015625-.765625-1.453125-.34375-.511718-.683594-.9375-1.023438-1.363281-3.421874-3.160156-8.695312-3.160156-12.117187 0-3.347656 3.34375-3.347656 8.769531 0 12.117187 3.34375 3.34375 8.769531 3.34375 12.117187 0l1.023438-1.28125c.324219-.476562.582031-.992187.765625-1.535156.25-.484375.421875-1.003906.515625-1.535156.226562-1.128906.226562-2.289062 0-3.414062-.09375-.535157-.265625-1.054688-.515625-1.535157zm0 0"/><path d="m179.199219 110.933594h-59.734375c-4.710938 0-8.53125 3.820312-8.53125 8.53125 0 4.714844 3.820312 8.535156 8.53125 8.535156h59.734375c4.714843 0 8.535156-3.820312 8.535156-8.535156 0-4.710938-3.820313-8.53125-8.535156-8.53125zm0 0"/></svg>